<svg xmlns="http://www.w3.org/2000/svg" xmlns:xlink="http://www.w3.org/1999/xlink" version="1.1" width="940" height="788" viewBox="0 0 940 788" xml:space="preserve">
<desc>Created with Fabric.js 3.5.0</desc>
<defs>
</defs>
<rect x="0" y="0" width="100%" height="100%" fill="rgba(255,255,255,0)"/>
<g transform="matrix(48.431 0 0 48.431 469.9998 393.9998)" id="63705">
<circle style="stroke: none; stroke-width: 0; stroke-dasharray: none; stroke-linecap: butt; stroke-dashoffset: 0; stroke-linejoin: miter; stroke-miterlimit: 4; is-custom-font: none; font-file-url: none; fill: rgb(75,132,238); fill-rule: nonzero; opacity: 1;" vector-effect="non-scaling-stroke" cx="0" cy="0" r="8"/>
</g>
<g transform="matrix(2.0775 0 0 2.0775 482.5459 406.3301)" id="614454">
<g style="" vector-effect="non-scaling-stroke">
		<g transform="matrix(1 0 0 1 25.524 29.3615)" id="Layer_8">
<path style="stroke: none; stroke-width: 1; stroke-dasharray: none; stroke-linecap: butt; stroke-dashoffset: 0; stroke-linejoin: miter; stroke-miterlimit: 4; is-custom-font: none; font-file-url: none; fill: rgb(111,202,205); fill-rule: nonzero; opacity: 1;" transform=" translate(-168.2605, -169.643)" d="M 226.574 169.645 c 0 32.208 -26.104 58.312 -58.311 58.312 c -32.208 0 -58.316 -26.104 -58.316 -58.312 c 0 -32.208 26.108 -58.316 58.316 -58.316 C 200.471 111.329 226.574 137.437 226.574 169.645 z" stroke-linecap="round"/>
</g>
		<g transform="matrix(1 0 0 1 50.252 26.4835)" id="Layer_8">
<polygon style="stroke: none; stroke-width: 1; stroke-dasharray: none; stroke-linecap: butt; stroke-dashoffset: 0; stroke-linejoin: miter; stroke-miterlimit: 4; is-custom-font: none; font-file-url: none; fill: rgb(159,217,220); fill-rule: nonzero; opacity: 1;" points="-0.3635,55.436 -16.9045,55.436 0.3635,-55.436 16.9045,-43.925 "/>
</g>
		<g transform="matrix(1 0 0 1 37.036 26.4835)" id="Layer_8">
<polygon style="stroke: none; stroke-width: 1; stroke-dasharray: none; stroke-linecap: butt; stroke-dashoffset: 0; stroke-linejoin: miter; stroke-miterlimit: 4; is-custom-font: none; font-file-url: none; fill: rgb(159,217,220); fill-rule: nonzero; opacity: 1;" points="-6.1165,55.436 -11.1475,55.436 6.1145,-55.436 11.1475,-55.436 "/>
</g>
		<g transform="matrix(1 0 0 1 -105.779 -103.322)" id="Layer_8">
<path style="stroke: none; stroke-width: 1; stroke-dasharray: none; stroke-linecap: butt; stroke-dashoffset: 0; stroke-linejoin: miter; stroke-miterlimit: 4; is-custom-font: none; font-file-url: none; fill: rgb(0,0,0); fill-rule: nonzero; opacity: 1;" transform=" translate(-36.9575, -36.9595)" d="M 59.101 0 H 14.726 C 6.549 0 0 6.55 0 14.692 V 59.07 c 0 8.179 6.549 14.849 14.726 14.849 h 44.375 c 8.15 0 14.814 -6.67 14.814 -14.849 V 14.692 C 73.916 6.55 67.251 0 59.101 0 L 59.101 0 z M 60.587 58.834 c 0 0.962 -0.79 1.747 -1.789 1.747 h -44.25 c -0.968 0 -1.752 -0.785 -1.752 -1.747 V 14.548 c 0 -0.97 0.785 -1.755 1.752 -1.755 h 44.25 c 0.999 0 1.789 0.785 1.789 1.755 V 58.834 z M 60.587 58.834" stroke-linecap="round"/>
</g>
		<g transform="matrix(1 0 0 1 -105.776 -103.324)" id="Layer_8">
<rect style="stroke: none; stroke-width: 1; stroke-dasharray: none; stroke-linecap: butt; stroke-dashoffset: 0; stroke-linejoin: miter; stroke-miterlimit: 4; is-custom-font: none; font-file-url: none; fill: rgb(0,0,0); fill-rule: nonzero; opacity: 1;" x="-14.1785" y="-14.1815" rx="0" ry="0" width="28.357" height="28.363"/>
</g>
		<g transform="matrix(1 0 0 1 -105.779 12.29)" id="Layer_8">
<path style="stroke: none; stroke-width: 1; stroke-dasharray: none; stroke-linecap: butt; stroke-dashoffset: 0; stroke-linejoin: miter; stroke-miterlimit: 4; is-custom-font: none; font-file-url: none; fill: rgb(0,0,0); fill-rule: nonzero; opacity: 1;" transform=" translate(-36.9575, -152.5715)" d="M 59.101 115.615 H 14.726 C 6.549 115.615 0 122.125 0 130.278 v 44.383 c 0 8.171 6.549 14.867 14.726 14.867 h 44.375 c 8.15 0 14.814 -6.696 14.814 -14.867 v -44.383 C 73.916 122.125 67.251 115.615 59.101 115.615 L 59.101 115.615 z M 60.587 174.63 c 0 0.963 -0.701 1.569 -1.664 1.569 H 14.658 c -0.962 0 -1.862 -0.606 -1.862 -1.569 v -44.26 c 0 -0.965 0.9 -1.964 1.862 -1.964 h 44.266 c 0.962 0 1.664 0.999 1.664 1.964 V 174.63 z M 60.587 174.63" stroke-linecap="round"/>
</g>
		<g transform="matrix(1 0 0 1 -105.776 12.292)" id="Layer_8">
<rect style="stroke: none; stroke-width: 1; stroke-dasharray: none; stroke-linecap: butt; stroke-dashoffset: 0; stroke-linejoin: miter; stroke-miterlimit: 4; is-custom-font: none; font-file-url: none; fill: rgb(0,0,0); fill-rule: nonzero; opacity: 1;" x="-14.1785" y="-14.1785" rx="0" ry="0" width="28.357" height="28.357"/>
</g>
		<g transform="matrix(1 0 0 1 9.263 -103.3225)" id="Layer_8">
<path style="stroke: none; stroke-width: 1; stroke-dasharray: none; stroke-linecap: butt; stroke-dashoffset: 0; stroke-linejoin: miter; stroke-miterlimit: 4; is-custom-font: none; font-file-url: none; fill: rgb(0,0,0); fill-rule: nonzero; opacity: 1;" transform=" translate(-151.9995, -36.959)" d="M 129.705 73.918 h 44.35 c 8.182 0 14.902 -6.67 14.902 -14.849 V 14.692 C 188.957 6.55 182.236 0 174.055 0 h -44.35 c -8.181 0 -14.663 6.55 -14.663 14.692 V 59.07 C 115.042 67.249 121.524 73.918 129.705 73.918 L 129.705 73.918 z M 127.838 14.548 c 0 -0.97 0.779 -1.755 1.742 -1.755 h 44.292 c 0.969 0 1.752 0.785 1.752 1.755 v 44.287 c 0 0.962 -0.783 1.747 -1.752 1.747 H 129.58 c -0.962 0 -1.742 -0.785 -1.742 -1.747 V 14.548 z M 127.838 14.548" stroke-linecap="round"/>
</g>
		<g transform="matrix(1 0 0 1 8.987 -103.324)" id="Layer_8">
<rect style="stroke: none; stroke-width: 1; stroke-dasharray: none; stroke-linecap: butt; stroke-dashoffset: 0; stroke-linejoin: miter; stroke-miterlimit: 4; is-custom-font: none; font-file-url: none; fill: rgb(0,0,0); fill-rule: nonzero; opacity: 1;" x="-14.4485" y="-14.1815" rx="0" ry="0" width="28.897" height="28.363"/>
</g>
		<g transform="matrix(1 0 0 1 -101.5965 -44.957)" id="Layer_8">
<path style="stroke: none; stroke-width: 1; stroke-dasharray: none; stroke-linecap: butt; stroke-dashoffset: 0; stroke-linejoin: miter; stroke-miterlimit: 4; is-custom-font: none; font-file-url: none; fill: rgb(0,0,0); fill-rule: nonzero; opacity: 1;" transform=" translate(-41.14, -95.3245)" d="M 26.553 82.275 h -9.777 c -2.119 0 -3.981 1.755 -3.981 3.892 v 9.779 c 0 2.14 1.862 4.099 3.981 4.099 h 9.353 v 0.123 c 0 2.142 1.501 3.767 3.62 3.767 h 21.929 v 0.458 c 0 2.142 1.909 3.981 4.018 3.981 h 9.803 c 2.145 0 3.986 -1.839 3.986 -3.981 v -9.476 c 0 -2.14 -1.841 -3.769 -3.986 -3.769 h -4.912 v -4.98 c 0 -2.137 -1.69 -3.892 -3.83 -3.892 h -5.283 c -2.113 0 -3.677 1.755 -3.677 3.892 v 4.98 H 30.565 v -4.98 C 30.565 84.03 28.693 82.275 26.553 82.275 L 26.553 82.275 z M 26.553 82.275" stroke-linecap="round"/>
</g>
		<g transform="matrix(1 0 0 1 -47.41 -103.3235)" id="Layer_8">
<path style="stroke: none; stroke-width: 1; stroke-dasharray: none; stroke-linecap: butt; stroke-dashoffset: 0; stroke-linejoin: miter; stroke-miterlimit: 4; is-custom-font: none; font-file-url: none; fill: rgb(0,0,0); fill-rule: nonzero; opacity: 1;" transform=" translate(-95.3265, -36.958)" d="M 88.913 41.689 v 21.67 c 0 2.137 1.48 3.889 3.62 3.889 h 13.999 c 2.139 0 4.075 -1.752 4.075 -3.889 v -9.785 c 0 -2.134 -1.936 -4.125 -4.075 -4.125 h -4.829 V 19.455 h 0.602 c 2.14 0 3.866 -1.647 3.866 -3.769 v -5.272 c 0 -2.119 -1.726 -3.746 -3.866 -3.746 H 83.792 c -2.155 0 -3.746 1.626 -3.746 3.746 v 5.272 c 0 2.122 1.59 3.769 3.746 3.769 h 5.121 v 13.881 h -5.121 c -2.155 0 -3.746 1.815 -3.746 3.955 v 0.728 c 0 2.108 1.59 3.672 3.746 3.672 H 88.913 z M 88.913 41.689" stroke-linecap="round"/>
</g>
		<g transform="matrix(1 0 0 1 -51.877 -58.296)" id="Layer_8">
<path style="stroke: none; stroke-width: 1; stroke-dasharray: none; stroke-linecap: butt; stroke-dashoffset: 0; stroke-linejoin: miter; stroke-miterlimit: 4; is-custom-font: none; font-file-url: none; fill: rgb(0,0,0); fill-rule: nonzero; opacity: 1;" transform=" translate(-90.8595, -81.9855)" d="M 99.475 86.737 v -9.5 c 0 -2.142 -1.721 -3.863 -3.86 -3.863 h -9.505 c -2.114 0 -3.866 1.721 -3.866 3.863 v 9.5 c 0 2.118 1.752 3.86 3.866 3.86 h 9.505 C 97.753 90.598 99.475 88.885 99.475 86.737 L 99.475 86.737 z M 99.475 86.737" stroke-linecap="round"/>
</g>
		<g transform="matrix(1 0 0 1 -25.162 -46.329)" id="Layer_8">
<path style="stroke: none; stroke-width: 1; stroke-dasharray: none; stroke-linecap: butt; stroke-dashoffset: 0; stroke-linejoin: miter; stroke-miterlimit: 4; is-custom-font: none; font-file-url: none; fill: rgb(0,0,0); fill-rule: nonzero; opacity: 1;" transform=" translate(-117.5745, -93.9525)" d="M 116.366 90.059 c -2.134 0 -4.101 1.836 -4.101 3.958 v 3.829 c 3.353 -2.835 7 -5.582 10.619 -7.787 H 116.366 z M 116.366 90.059" stroke-linecap="round"/>
</g>
		<g transform="matrix(1 0 0 1 -41.8025 -28.29)" id="Layer_8">
<path style="stroke: none; stroke-width: 1; stroke-dasharray: none; stroke-linecap: butt; stroke-dashoffset: 0; stroke-linejoin: miter; stroke-miterlimit: 4; is-custom-font: none; font-file-url: none; fill: rgb(0,0,0); fill-rule: nonzero; opacity: 1;" transform=" translate(-100.934, -111.9915)" d="M 111.271 98.928 H 94.646 c -2.14 0 -4.049 1.692 -4.049 3.837 v 22.29 c 4.441 -8.024 9.756 -15.534 16.473 -22.269 C 108.404 101.468 109.853 100.045 111.271 98.928 L 111.271 98.928 z M 111.271 98.928" stroke-linecap="round"/>
</g>
		<g transform="matrix(1 0 0 1 44.0093 42.0304)" id="Layer_8">
<path style="stroke: rgb(0,0,0); stroke-width: 8.035; stroke-dasharray: none; stroke-linecap: butt; stroke-dashoffset: 0; stroke-linejoin: miter; stroke-miterlimit: 10; is-custom-font: none; font-file-url: none; fill: rgb(255,255,255); fill-rule: nonzero; opacity: 1;" transform=" translate(-186.7457, -182.3119)" d="M 275.758 246.129 l -36.389 -36.377 c 19.137 -30.629 15.48 -71.75 -11.188 -98.423 c -31.012 -30.986 -81.459 -31.021 -112.48 0 c -31.015 31.015 -30.947 81.432 0.062 112.417 c 26.668 26.668 67.554 30.565 98.449 11.168 l 36.389 36.351 c 6.967 7.005 18.219 7.062 25.219 0.058 C 282.793 264.354 282.73 253.097 275.758 246.129 L 275.758 246.129 z M 213.037 208.632 c -22.656 22.656 -59.498 22.656 -82.16 0 c -22.656 -22.661 -22.656 -59.498 0 -82.157 c 22.662 -22.627 59.504 -22.627 82.16 0 C 235.662 149.134 235.662 185.971 213.037 208.632 L 213.037 208.632 z M 213.037 208.632" stroke-linecap="round"/>
</g>
</g>
</g>
</svg>